<svg width="779" height="572" viewBox="0 0 779 572" fill="none" xmlns="http://www.w3.org/2000/svg">
<path d="M331.943 414.243L262.061 483.885C238.93 506.659 207.697 519.39 175.181 519.293C142.665 519.196 111.508 506.281 88.5157 483.366C65.523 460.452 52.5624 429.401 52.4644 396.995C52.3662 364.589 65.1386 333.461 87.9919 310.41L192.37 206.387C192.316 204.555 192.278 202.719 192.278 200.877C192.268 185.386 194.264 169.958 198.216 154.975L65.1338 287.604C36.1563 316.69 19.9268 356.037 20.0002 397.024C20.0737 438.011 36.4441 477.299 65.5256 506.281C94.6071 535.263 134.029 551.577 175.156 551.648C216.283 551.722 255.763 535.547 284.947 506.668L354.827 437.026L331.943 414.243Z" fill="white" stroke="#EC0031" stroke-width="40"/>
<path d="M555.678 551.976C535.267 552.011 515.05 548.026 496.191 540.25C477.331 532.478 460.196 521.065 445.774 506.672L248.835 310.403C219.754 281.339 203.436 241.96 203.465 200.915C203.494 159.87 219.868 120.514 248.991 91.4917C278.114 62.469 317.604 46.1522 358.791 46.1247C399.975 46.0972 439.488 62.3613 468.649 91.3451L665.587 287.614C687.334 309.267 702.148 336.864 708.151 366.913C714.156 396.96 711.078 428.108 699.312 456.412C687.543 484.717 667.615 508.903 642.047 525.917C616.478 542.929 586.423 551.996 555.68 551.976H555.678ZM468.649 483.883C491.79 506.612 523.007 519.3 555.498 519.183C587.986 519.067 619.111 506.151 642.086 483.254C665.059 460.36 678.019 429.34 678.136 396.962C678.253 364.582 665.521 333.468 642.715 310.408L445.776 114.14C434.376 102.613 420.802 93.4486 405.832 87.1741C390.864 80.8995 374.798 77.639 358.559 77.5804C342.318 77.5215 326.228 80.6658 311.215 86.832C296.202 92.9981 282.56 102.064 271.077 113.508C259.594 124.952 250.497 138.547 244.31 153.51C238.122 168.473 234.967 184.509 235.026 200.692C235.085 216.876 238.357 232.888 244.653 247.806C250.949 262.724 260.145 276.253 271.71 287.614L468.649 483.883Z" fill="white" stroke="#EC0031" stroke-width="40"/>
<rect x="569.687" y="86.3265" width="65.346" height="173.911" rx="32.673" transform="rotate(-45.1433 569.687 86.3265)" stroke="#EC0031" stroke-width="56"/>
</svg>
